<svg xmlns="http://www.w3.org/2000/svg" width="108.14" height="108.14" viewBox="0 0 108.14 108.14"><defs><style>.bayar-cls-1,.bayar-cls-2{fill:#aaafb9;stroke:#aaafb9}.bayar-cls-1{stroke-width:.91px}.bayar-cls-2{stroke-width:.54px}</style></defs><title>bayer</title><g id="Layer_2" data-name="Layer 2"><g id="Layer_1-2" data-name="Layer 1"><g id="B1"><path class="bayar-cls-1" d="M54.07.45a53.62 53.62 0 1 0 53.62 53.62A53.63 53.63 0 0 0 54.07.45zm0 101.15a47.53 47.53 0 1 1 47.53-47.53 47.52 47.52 0 0 1-47.53 47.53z"/><path class="bayar-cls-2" d="M59.17 46.73h4l-7.27 9.36v5h-3.43v-5l-7.27-9.36h4l4.95 6.66zm19.26 0v2.93H68.8v2.74H78v2.82h-9.2v2.93h9.63v3h-13V46.73zm-17.78 18v2.93H51v2.74h9.25v2.82H51v2.93h9.63v2.93h-13V64.73h13zm28.96-9.1h-2.74v5.48h-3.35V46.73h8.71a4.45 4.45 0 0 1 1.26 8.71l4.22 5.63h-4zm2.32-6h-5.06v3.12h5.06a1.59 1.59 0 0 0 1.56-1.56 1.62 1.62 0 0 0-1.56-1.53zM58.52 87.71a1.6 1.6 0 0 0-1.52-1.6h-5.9v3.16H57a1.62 1.62 0 0 0 1.52-1.56zm-10.84 9.86V83.22h9.59a4.44 4.44 0 0 1 1.64 8.56l4.3 5.78h-4l-4.11-5.47H51v5.48zm-1.49-36.5h-3.61L41.4 58.6h-8.11l-1.18 2.47h-3.57l7.15-14.35H39zm-8.82-10.92l-2.85 5.67h5.63zM63 42.81h-3.6l-1.18-2.47h-8.11l-1.18 2.47h-3.57l7.15-14.35h3.31zm-8.83-11l-2.85 5.67H57zM14.72 52.43h6.09A1.42 1.42 0 0 0 22.18 51a1.4 1.4 0 0 0-1.37-1.41h-6.09zm0 5.82h6.35a1.64 1.64 0 0 0 1.64-1.56 1.73 1.73 0 0 0-1.64-1.64h-6.35zm9.7-4.64a4.19 4.19 0 0 1 1.52 3.12 4.42 4.42 0 0 1-4.64 4.38h-9.89V46.73h9.82a4.19 4.19 0 0 1 3.2 6.89zM51 16.59h6.05a1.41 1.41 0 0 0 1.37-1.37 1.4 1.4 0 0 0-1.37-1.41H51zm0 5.78h6.35A1.64 1.64 0 0 0 59 20.81a1.73 1.73 0 0 0-1.64-1.64h-6.3v3.2zm9.67-4.6a4.19 4.19 0 0 1 1.52 3.12 4.42 4.42 0 0 1-4.64 4.38h-9.91V10.88h9.82a4.17 4.17 0 0 1 4.19 4.19 3.8 3.8 0 0 1-.96 2.7z"/></g></g></g></svg>
