<svg xmlns="http://www.w3.org/2000/svg" width="214.62" height="61.05" viewBox="0 0 214.62 61.05"><defs><style>.nasdaq-cls-1{fill:#aaafb9}</style></defs><title>nasdaq</title><g id="Layer_2" data-name="Layer 2"><g id="Layer_1-2" data-name="Layer 1"><path class="nasdaq-cls-1" d="M70.37 0H53.1l-16 44a2.9 2.9 0 0 1-2.62 1.83h-.3 17.53A2.83 2.83 0 0 0 54.35 44z"/><path class="nasdaq-cls-1" d="M36 15.21a3 3 0 0 0-2.77 1.93l-5.66 15.62 4 11.12a3 3 0 0 0 2.77 2 2.88 2.88 0 0 0 2.78-1.94l5.71-15.66-4-11.09A2.94 2.94 0 0 0 36 15.21z"/><path class="nasdaq-cls-1" d="M0 61h17.27l16-44a3 3 0 0 1 2.62-1.83h.3-17.53A2.83 2.83 0 0 0 16 17zm94.49-44l-.06 23.22L81.08 17H75l-.07 29h4.36l.06-23 13.21 23h6.22l.07-29zm21.95 7a70 70 0 0 0-11.89.51v3.93a45.38 45.38 0 0 1 10.32-.74c2 .37 2.74 1.44 2.73 3.12v1.64c-2.73-.07-5.09-.09-7.4 0-3.81.26-7.16 2.55-7.17 6.66s1.52 6.49 5.81 7.09a54.87 54.87 0 0 0 13.49-.16V31c.18-4.25-1.88-6.5-5.89-7zm1.32 19.17c-1 .05-2.88 0-3.93 0-3.85-.1-6.13-.61-6.14-4 0-2.73 2.93-3.27 4.19-3.27h6zm66.74-19a70 70 0 0 0-11.89.51v3.92a45.38 45.38 0 0 1 10.32-.74c2 .37 2.74 1.44 2.73 3.12v1.64c-2.73-.07-5.09-.09-7.4 0-3.81.26-7.16 2.55-7.17 6.66s1.52 6.49 5.81 7.09a54.87 54.87 0 0 0 13.49-.16V31.14c.18-4.23-1.88-6.47-5.89-6.97zm1.32 19.17c-1 .05-2.88 0-3.93 0-3.85-.1-6.13-.61-6.14-4 0-2.73 2.93-3.27 4.19-3.27h6zm-59.13-1.69v4.11c5 1.05 9.3 1.16 12.86 0 6-2 6.59-10.1 0-12.05l-5.93-1.53c-2.95-.71-3.24-3.68 0-4.32 2.59-.49 5.67-.1 9.13.44v-3.83c-4.59-1-8.42-.94-11.56 0-5.73 1.53-6.11 8.28-2.18 10.72 2 1.41 6 1.9 8 2.44 3.21.95 2.67 4.19 0 4.71a21.6 21.6 0 0 1-10.32-.69zm35.7-26.08v8.62a40.63 40.63 0 0 0-5.64-.17c-5.61.48-9.83 4.47-9.85 11 0 7.38 4.1 11.1 10 11.63a39.87 39.87 0 0 0 10.1-.49l.07-30.58zm-.07 27.66h-2.91c-4.22 0-7.33-2.24-7.62-8 0-5.92 3.7-7.8 8.1-7.49l2.46.29zm52.3 10.44V24.26a39.66 39.66 0 0 0-10.09-.38c-5.71.52-10 3.56-10 11.3 0 7.11 3.92 10.83 9.53 11.32 2.41.17 5.61.13 5.61.13V56zm-5-11.09l-2.46.28c-4.13.27-7.81-1.86-7.81-7.33 0-6 3.42-7.93 7.64-7.93h2.91z"/></g></g></svg>
