<svg xmlns="http://www.w3.org/2000/svg" width="187.09" height="32.63" viewBox="0 0 187.09 32.63"><defs><style>.sony-cls-1{fill:#aaafb9;fill-rule:evenodd}</style></defs><title>sony</title><g id="Layer_2" data-name="Layer 2"><g id="Layer_1-2" data-name="Layer 1"><path class="sony-cls-1" d="M184.24 26.35a2.85 2.85 0 1 0 2.84 2.84 2.85 2.85 0 0 0-2.84-2.84zm0 5.36a2.51 2.51 0 1 1 2.5-2.52 2.51 2.51 0 0 1-2.5 2.52z"/><path class="sony-cls-1" d="M185.71 28.45a.78.78 0 0 0-.36-.69 1.47 1.47 0 0 0-.78-.16h-1.39v3.19h.39v-1.47h.72l.91 1.47h.46l-1-1.47c.57 0 1-.25 1-.87zm-1.54.57h-.6v-1.13h.91c.4 0 .83.06.83.55 0 .65-.69.57-1.14.57zM167.53 13l5.83-6.22a2 2 0 0 0 .51-1.05c0-.46-.39-.64-1.63-.64h-1.47v-3.9h15.92v3.93h-2.09c-2.42 0-2.87.37-6.24 4.61l-9.22 10v6.08c0 1.55.79 2.1 3 2.1h3.48v3.79h-22.3v-3.82h3.48c2.25 0 3-.55 3-2.1V19.7L149 7.68c-1.8-2.1-1.55-2.56-6.55-2.56V1.19h20.17v3.93h-1.44c-1.46 0-2.08.27-2.08.82s.45.82.73 1.19l5.5 6a1.34 1.34 0 0 0 2.19-.08zM32.21 1.19h4.86v11h-4.49c-.4-2.19-1.77-3-3-4.2-2.26-2.07-7.14-3.8-11.26-3.8-5.32-.03-9.8 1.62-9.8 4.04 0 6.72 30.34 1.37 30.34 14.07 0 6.63-6.5 10.33-18.17 10.33a34.22 34.22 0 0 1-13.76-3.17c-1.13-.65-1.61.62-1.82 2.21h-5V20.34h4.52C5.62 23.21 7 23.81 8.26 25c2.19 2 7.4 3.47 12.17 3.43 7.2-.07 9.68-1.64 9.68-3.93s-2.45-2.83-10.34-4.07l-6.7-1.1C5.5 18.14 0 16.45 0 10.42 0 4.16 7 .23 18 .23c4.61 0 8.5.62 12.22 2.77 1 .67 2 .75 2-1.77zm94.94 18.36l.1-12.19c0-1.6-.83-2.15-3.21-2.15h-2.79V1.42H139v3.79h-2.3c-2.38 0-3.21.55-3.21 2.15V31.9l-7-.05L104 10.52V26c0 1.55.83 2.15 3.21 2.15h3.09v3.75H91.86v-3.75h3.06c2.38 0 3.21-.59 3.21-2.15V7.36c0-1.6-.83-2.15-3.21-2.15h-3.06V1.42h16l19.34 18.13zM67.63 0c-14.16 0-23 6.26-23 16.31 0 9.87 8.74 16.08 22.6 16.08 14.71 0 23.27-6.12 23.27-16.59C90.47 6.4 81.24 0 67.63 0zm-.32 28.42C59.47 28.42 55 23.9 55 16.08c0-7.63 4.67-12.15 12.7-12.15 7.71 0 12.21 4.62 12.21 12.47 0 7.68-4.57 12-12.61 12z"/></g></g></svg>
